<svg width="100" height="100" xmlns="http://www.w3.org/2000/svg">
    <!-- Grid lines -->
    <path d="M0,20 L100,20 M0,40 L100,40 M0,60 L100,60 M0,80 L100,80" stroke="#ffffff"
        stroke-width="0.5" opacity="0.5" />
    <path d="M20,0 L20,100 M40,0 L40,100 M60,0 L60,100 M80,0 L80,100" stroke="#ffffff"
        stroke-width="0.5" opacity="0.5" />

    <!-- Map elements -->
    <circle cx="25" cy="35" r="3" fill="none" stroke="#ffffff" stroke-width="0.8" opacity="0.7" />
    <circle cx="65" cy="75" r="2" fill="none" stroke="#ffffff" stroke-width="0.8" opacity="0.7" />
    <circle cx="85" cy="15" r="2.5" fill="none" stroke="#ffffff" stroke-width="0.8" opacity="0.7" />

    <!-- Roads -->
    <path d="M0,50 L40,50 L40,75 L100,75" stroke="#ffffff" stroke-width="1.2" opacity="0.6"
        fill="none" />
    <path d="M30,0 L30,100" stroke="#ffffff" stroke-width="1.2" opacity="0.6" fill="none" />
    <path d="M60,25 L100,25" stroke="#ffffff" stroke-width="1.2" opacity="0.6" fill="none" />

    <!-- Map pins -->
    <path d="M50,40 L54,44 L50,60 L46,44 Z" fill="#ffffff" opacity="0.8" />
    <path d="M70,60 L74,64 L70,80 L66,64 Z" fill="#ffffff" opacity="0.8" />

    <!-- Curved paths -->
    <path d="M10,10 Q30,30 50,10" stroke="#ffffff" stroke-width="0.8" opacity="0.6" fill="none" />
    <path d="M60,90 Q80,70 90,90" stroke="#ffffff" stroke-width="0.8" opacity="0.6" fill="none" />
</svg> 